0
SECTION
2
HEADER
9
$INSUNITS
70
4
0
ENDSEC
0
SECTION
2
TABLES
0
TABLE
2
LTYPE
0
LTYPE
72
65
70
64
2
CONTINUOUS
3
______
73
0
40
0
0
ENDTAB
0
TABLE
2
LAYER
0
ENDTAB
0
ENDSEC
0
SECTION
2
ENTITIES
0
LINE
8
0
10
-8
20
-9.5
11
8
21
-9.5
0
LINE
8
0
10
10
20
-7.5
11
10
21
-6.75
0
LINE
8
0
10
-10
20
-7.5
11
-10
21
64.5
0
LINE
8
0
10
7
20
66.5
11
-8
21
66.5
0
LINE
8
0
10
12
20
-4.75
11
27
21
-4.75
0
LINE
8
0
10
29
20
-2.75
11
29
21
2.75
0
LINE
8
0
10
26
20
71.25
11
11
21
71.25
0
LINE
8
0
10
9
20
69.25
11
9
21
68.5
0
LINE
8
0
10
31
20
4.75
11
45
21
4.75
0
LINE
8
0
10
48
20
78
11
48
21
78.75
0
LINE
8
0
10
46
20
80.75
11
30
21
80.75
0
LINE
8
0
10
28
20
78.75
11
28
21
73.25
0
LINE
8
0
10
50
20
76
11
84
21
76
0
LINE
8
0
10
69
20
19
11
84
21
19
0
LINE
8
0
10
86
20
21
11
86
21
74
0
LINE
8
0
10
49
20
0
11
66.1328555
21
0
0
LINE
8
0
10
67
20
14.9913351
11
67
21
17
0
LINE
8
0
10
47
20
2.75
11
47
21
2
0
LINE
8
0
10
66.8168957
20
-0.1206148
11
83.7461265
21
-6.2823508
0
LINE
8
0
10
89.6883144
20
7.5083151
11
90.3753183
21
9.395843
0
LINE
8
0
10
89.1799733
20
11.9592684
11
74.1448913
21
17.4315907
0
LINE
8
0
10
71.5814659
20
16.2362456
11
70.8793852
21
14.3072949
0
LINE
8
0
10
84.3476616
20
-6.6296472
11
97.2806792
21
-17.4817376
0
LINE
8
0
10
100.0983433
20
-17.2352239
11
109.7401575
21
-5.7445573
0
LINE
8
0
10
109.4936438
20
-2.9268932
11
97.2369328
21
7.3577086
0
LINE
8
0
10
94.4192687
20
7.1111949
11
93.0997885
21
5.5386996
0
ARC
8
0
10
8
20
-7.5
40
2
50
270
51
0
0
ARC
8
0
10
12
20
-6.75
40
2
50
90
51
180
0
ARC
8
0
10
27
20
-2.75
40
2
50
270
51
0
0
ARC
8
0
10
31
20
2.75
40
2
50
90
51
180
0
ARC
8
0
10
45
20
2.75
40
2
50
0
51
90
0
ARC
8
0
10
49
20
2
40
2
50
180
51
270
0
ARC
8
0
10
66.1328555
20
-2
40
2
50
70.0000019
51
90
0
ARC
8
0
10
83.0620863
20
-8.1617361
40
2
50
49.9999988
51
70.0000019
0
ARC
8
0
10
98.5662544
20
-15.9496487
40
2
50
229.9999988
51
319.9999988
0
ARC
8
0
10
108.2080686
20
-4.4589821
40
2
50
319.9999988
51
49.9999988
0
ARC
8
0
10
95.9513576
20
5.8256197
40
2
50
49.9999988
51
139.9999988
0
ARC
8
0
10
91.5676996
20
6.8242749
40
2
50
160.0000019
51
319.9999988
0
ARC
8
0
10
88.4959331
20
10.0798832
40
2
50
340.0000019
51
70.0000019
0
ARC
8
0
10
73.4608511
20
15.5522054
40
2
50
70.0000019
51
160.0000019
0
ARC
8
0
10
69
20
14.9913351
40
2
50
180
51
340.0000019
0
ARC
8
0
10
69
20
17
40
2
50
90
51
180
0
ARC
8
0
10
84
20
21
40
2
50
270
51
0
0
ARC
8
0
10
84
20
74
40
2
50
0
51
90
0
ARC
8
0
10
50
20
78
40
2
50
180
51
270
0
ARC
8
0
10
46
20
78.75
40
2
50
0
51
90
0
ARC
8
0
10
30
20
78.75
40
2
50
90
51
180
0
ARC
8
0
10
26
20
73.25
40
2
50
270
51
0
0
ARC
8
0
10
11
20
69.25
40
2
50
90
51
180
0
ARC
8
0
10
7
20
68.5
40
2
50
270
51
0
0
ARC
8
0
10
-8
20
64.5
40
2
50
90
51
180
0
ARC
8
0
10
-8
20
-7.5
40
2
50
180
51
270
0
ENDSEC
0
EOF